HIERARCHY
ROOT hip
{
	OFFSET 0.000000 0.000000 0.000000 
	CHANNELS 6 Xposition Yposition Zposition Xrotation Zrotation Yrotation
	JOINT abdomen
	{
		OFFSET 0.000000 3.402643 0.000000 
		CHANNELS 3 Xrotation Zrotation Yrotation
		JOINT chest
		{
			OFFSET 0.000000 8.438565 -0.680529 
			CHANNELS 3 Xrotation Zrotation Yrotation
			JOINT neck
			{
				OFFSET 0.000000 10.207942 -0.272212 
				CHANNELS 3 Xrotation Zrotation Yrotation
				JOINT head
				{
					OFFSET 0.000000 3.130431 0.000000 
					CHANNELS 3 Xrotation Zrotation Yrotation
					End Site
					{
						OFFSET 0.000000 3.130435 0.000000 
					}
				}
			}
			JOINT lCollar
			{
				OFFSET 3.470700 6.669187 -0.816635 
				CHANNELS 3 Yrotation Zrotation Xrotation
				JOINT lShldr
				{
					OFFSET 3.198488 0.000000 0.000000 
					CHANNELS 3 Zrotation Yrotation Xrotation
					JOINT lForeArm
					{
						OFFSET 10.139888 0.000000 0.000000 
						CHANNELS 3 Yrotation Zrotation Xrotation
						JOINT lHand
						{
							OFFSET 8.370511 0.000000 0.000000 
							CHANNELS 3 Zrotation Yrotation Xrotation
							End Site
							{
								OFFSET 4.083176 0.000000 0.000000 
							}
						}
					}
				}
			}
			JOINT rCollar
			{
				OFFSET -3.470700 6.669187 -0.816635 
				CHANNELS 3 Yrotation Zrotation Xrotation
				JOINT rShldr
				{
					OFFSET -3.198488 0.000000 0.000000 
					CHANNELS 3 Zrotation Yrotation Xrotation
					JOINT rForeArm
					{
						OFFSET -10.139888 0.000000 0.000000 
						CHANNELS 3 Yrotation Zrotation Xrotation
						JOINT rHand
						{
							OFFSET -8.370511 0.000000 0.000000 
							CHANNELS 3 Zrotation Yrotation Xrotation
							End Site
							{
								OFFSET -4.083176 0.000000 0.000000 
							}
						}
					}
				}
			}
		}
	}
	JOINT lThigh
	{
		OFFSET 5.308129 -1.633274 1.361059 
		CHANNELS 3 Xrotation Zrotation Yrotation
		JOINT lShin
		{
			OFFSET -2.041588 -20.007561 0.000000 
			CHANNELS 3 Xrotation Zrotation Yrotation
			JOINT lFoot
			{
				OFFSET 0.000000 -19.190928 -1.224953 
				CHANNELS 3 Xrotation Yrotation Zrotation
				End Site
				{
					OFFSET 0.000000 -2.449906 4.627600 
				}
			}
		}
	}
	JOINT rThigh
	{
		OFFSET -5.308129 -1.633274 1.361059 
		CHANNELS 3 Xrotation Zrotation Yrotation
		JOINT rShin
		{
			OFFSET 2.041588 -20.007561 0.000000 
			CHANNELS 3 Xrotation Zrotation Yrotation
			JOINT rFoot
			{
				OFFSET 0.000000 -19.190928 -1.224953 
				CHANNELS 3 Xrotation Yrotation Zrotation
				End Site
				{
					OFFSET 0.000000 -2.449906 4.627600 
				}
			}
		}
	}
}
MOTION
Frames: 6
Frame Time: 0.033333
77.407799 60.140411 52.474396 9.208985 -7.119140 54.530045 28.875677 -17.311380 0.268159 -28.125002 13.583985 8.681642 51.553619 8.070152 2.616707 -64.443359 -13.652342 -17.685549 2.000000 -2.000000 0.000000 -84.062500 41.123051 -6.077560 -86.273155 0.100047 -2.867729 -10.549248 36.201160 3.229711 -2.000000 2.000000 0.000000 66.523430 1.396484 20.507813 103.535049 -0.730526 -3.129078 -10.219840 -28.568689 1.501761 -32.383785 -1.084100 1.635570 30.324062 -5.518007 -3.377443 -3.070412 9.321505 1.024921 -0.274956 -5.079897 -19.785498 38.625698 4.312580 3.328149 36.742355 -14.061490 -5.062586 
80.857468 59.183777 54.896477 10.800780 -7.451172 55.693359 29.222872 -17.373482 -2.277476 -27.597658 12.861329 7.724609 51.553619 8.070152 2.616707 -67.001953 -11.220702 -15.478517 2.000000 -2.000000 0.000000 -85.195313 32.744141 -6.767579 -82.563522 -0.360992 -2.889873 -8.706297 37.596382 0.979135 -2.000000 2.000000 0.000000 68.613281 -2.558594 22.109375 96.996155 -0.644877 -2.918783 -12.421834 -30.184935 3.570327 -31.523802 -1.680221 2.267846 28.910322 -5.415542 -3.214406 -2.401838 4.905322 -1.010925 -6.805255 -7.906669 -18.060665 55.472664 3.173646 3.951442 33.717560 -15.085014 -0.606318 
84.155060 58.973373 57.193005 13.828125 -7.685547 56.795570 29.347725 -18.018248 -5.525495 -27.089846 11.103516 6.015625 51.553619 8.070152 2.616707 -70.458992 -7.685546 -12.675783 2.000000 -2.000000 0.000000 -83.066406 25.000000 -6.685324 -80.616028 -0.498756 -2.735208 -7.321295 37.436527 -0.974101 -2.000000 2.000000 0.000000 73.027344 -6.425781 23.612190 91.515945 -0.015128 -2.813909 -14.795380 -32.111675 5.517233 -29.855026 -2.606770 3.091712 33.505096 -5.297348 -3.452446 -10.104480 3.191605 -0.498058 -13.071429 -9.798003 -17.368608 66.814156 1.679670 4.927785 30.208479 -16.196079 2.576434 
87.303963 59.247677 59.403786 15.087892 -7.988281 57.420521 29.353420 -17.044464 -8.018925 -26.572268 10.039063 4.658204 51.553619 8.070152 2.616707 -72.695313 -5.576171 -10.234378 2.000000 -2.000000 0.000000 -80.859375 17.138672 -3.424855 -82.039551 -0.709554 -2.996768 -7.937046 34.141205 -1.768736 -2.000000 2.000000 0.000000 77.314453 -14.414064 22.019051 86.775581 0.113718 -3.011798 -16.828297 -35.474525 7.295155 -24.480312 -2.987612 3.439478 31.566277 -5.404905 -3.645776 -14.219799 2.175818 -0.284958 -19.575556 -11.157611 -16.124865 71.901985 1.337925 5.075402 26.431927 -16.250540 2.776329 
90.417923 59.786732 61.704605 13.867188 -8.720703 57.420395 28.817312 -14.468724 -9.316057 -26.396484 10.039064 4.160156 51.553619 8.070152 2.616707 -72.910156 -5.878906 -7.636718 2.000000 -2.000000 0.000000 -81.376953 8.095703 1.768953 -85.207352 -0.414654 -3.141062 -8.877559 29.316271 -1.608567 -2.000000 2.000000 0.000000 80.332031 -26.328123 17.583559 82.711632 0.413126 -2.945588 -19.055122 -39.461224 9.697303 -15.791131 -1.884441 2.923934 25.042542 -5.819161 -2.824857 -16.091906 1.225672 -0.870907 -26.586031 -12.778644 -14.628451 74.000511 1.171576 5.121241 22.789612 -16.060467 2.995893 
93.610794 60.554680 64.271210 11.552734 -9.316407 57.488659 28.249800 -11.016509 -10.375620 -26.210938 10.380860 4.042969 51.553619 8.070152 2.616707 -72.285156 -6.455077 -4.874145 2.000000 -2.000000 0.000000 -82.373047 1.240234 5.908414 -89.437759 -0.135065 -2.873646 -10.052066 24.446032 -2.159232 -2.000000 2.000000 0.000000 81.074219 -36.269531 14.746093 80.940140 0.590456 -2.798437 -20.113684 -42.119938 10.961052 -10.346207 0.175266 3.282027 22.573351 -5.712667 -2.549577 -11.230881 9.683545 -9.860519 -32.352230 -13.710393 -12.745190 72.780640 1.269503 5.092055 19.517422 -15.603675 1.881852 
